<svg width="276" height="211" viewBox="0 0 276 211" fill="none" xmlns="http://www.w3.org/2000/svg">
<g clip-path="url(#clip0_206_1962)">
<path d="M152.865 137.773C137.809 141.712 93.337 153.331 78.2219 157.243C78.0068 157.299 77.816 157.424 77.6793 157.599C77.5427 157.774 77.4678 157.99 77.4664 158.212C77.4651 158.434 77.5372 158.65 77.6717 158.827C77.8062 159.004 77.9954 159.131 78.2099 159.189C85.3129 161.128 98.0102 164.575 108.484 167.415C122.205 163.703 160.314 153.47 185.905 146.517L189.483 145.544L176.421 142.339C171.001 141.009 162.339 138.963 156.874 137.653C155.66 137.361 154.392 137.374 153.184 137.691L152.865 137.773Z" fill="white"/>
<path d="M220.362 15.6515C215.493 15.1942 210.582 15.63 205.87 16.9375C194.287 20.0329 188.508 27.6399 187.488 29.352C185.245 32.8197 183.834 36.7594 183.366 40.8629C182.938 43.0155 182.696 45.2011 182.643 47.3953C182.125 52.3418 181.427 59.2044 176.709 61.3224C175.759 61.7066 174.964 62.395 174.447 63.2796C173.177 65.6669 175.22 66.932 176.432 68.4512C177.192 69.429 177.701 70.5773 177.916 71.7965C177.889 74.2111 178.048 76.6241 178.39 79.0145C178.6 80.6979 179.023 82.3479 179.648 83.9248C180.532 86.2194 182.271 88.0817 184.501 89.1196C188.151 90.7722 193.251 91.6443 196.642 90.9932C197.037 90.9197 197.445 90.9925 197.79 91.198C198.135 91.4034 198.394 91.7276 198.517 92.1097C199.404 93.8962 200.167 95.7412 200.803 97.6317L203.017 103.113C207.291 100.481 211.956 98.5461 216.838 97.3801C221.934 96.0788 225.446 95.3939 230.57 95.9116C230.392 94.5258 230.347 93.1262 230.437 91.7319C231.165 87.4719 236.738 83.6354 239.841 80.7201C244.626 76.2261 251.767 67.2969 252.38 54.184C252.599 47.1612 250.892 40.2122 247.446 34.0895C239.54 20.3633 229.69 17.3652 223.573 16.137C222.499 15.9226 221.429 15.7608 220.362 15.6515Z" fill="white"/>
<path d="M5.66457 125.444C43.1377 116.788 109.967 101.572 139.104 94.939C139.793 94.7822 140.409 94.3956 140.85 93.8426C141.291 93.2896 141.531 92.6031 141.53 91.8959C141.524 62.8595 141.521 33.8226 141.523 4.78514C141.524 4.33309 141.426 3.88629 141.237 3.47572C141.048 3.06516 140.772 2.70065 140.428 2.40748C140.083 2.11431 139.68 1.89949 139.244 1.77792C138.809 1.65635 138.352 1.63094 137.906 1.70344C106.572 6.7938 37.582 18.2975 4.43558 23.8356C3.7087 23.9573 3.04868 24.3332 2.57318 24.8963C2.09769 25.4594 1.83762 26.1731 1.83936 26.9101C1.83936 39.2843 1.8466 92.0695 1.8474 122.408C1.84733 122.877 1.95306 123.34 2.15672 123.762C2.36037 124.184 2.65669 124.555 3.02361 124.847C3.39052 125.139 3.81856 125.344 4.27583 125.447C4.7331 125.551 5.2078 125.55 5.66457 125.444Z" fill="#211715"/>
<path d="M151.431 147.822C152.77 147.749 154.104 147.607 155.429 147.398C156.972 147.181 158.526 147.05 160.078 146.916C161.243 147.191 162.371 147.599 163.442 148.132C164.016 148.479 164.636 148.885 164.791 149.499C164.946 150.113 164.252 150.875 163.647 150.576L162.683 152.375C164.111 153.825 165.962 154.786 167.97 155.121C169.483 149.561 170.986 144.222 173.099 138.219C170.195 137.121 167.125 136.527 164.022 136.462C160.391 136.38 156.83 137.463 153.86 139.554C153.062 140.146 152.267 141.23 152.853 142.033L152.996 142.401C152.623 142.546 152.283 142.689 152 142.803C150.897 143.243 149.961 144.021 149.325 145.024C149.168 145.293 149.089 145.6 149.097 145.912C149.105 146.223 149.201 146.526 149.373 146.785C149.595 147.123 149.902 147.397 150.263 147.579C150.624 147.761 151.027 147.845 151.431 147.822Z" fill="white"/>
<path d="M141.626 161.024C140.735 157.641 139.172 154.472 137.03 151.705C136.656 151.177 136.117 150.787 135.498 150.596C134.77 150.362 133.983 150.394 133.275 150.685C132.809 150.846 132.389 151.118 132.051 151.478C131.713 151.837 131.467 152.274 131.335 152.749C130.829 151.777 130.096 150.94 129.199 150.31C128.302 149.679 127.267 149.273 126.181 149.126C124.247 148.851 122.281 148.89 120.36 149.24C118.623 149.481 116.718 150.569 116.388 151.651C115.943 151.722 115.505 151.83 115.079 151.973C114.603 152.13 114.144 152.332 113.707 152.576C112.631 153.194 111.567 153.835 110.516 154.498C110.146 154.706 109.841 155.014 109.638 155.387C109.435 155.761 109.342 156.184 109.369 156.608L109.498 157.263C108.643 157.658 107.858 158.187 107.172 158.832C106.567 159.353 106.141 160.049 105.952 160.824C105.866 161.212 105.903 161.617 106.056 161.983C106.209 162.349 106.471 162.66 106.807 162.871L108.25 163.635C108.008 163.913 107.782 164.204 107.571 164.507C106.702 165.75 106.627 167.028 107.107 167.69C107.354 167.983 107.664 168.216 108.014 168.37C108.365 168.525 108.746 168.597 109.128 168.582C109.841 168.548 113.158 167.303 114.374 167.014C116.323 169.004 118.684 170.545 121.29 171.528C123.897 172.511 126.687 172.912 129.465 172.705L130.528 173.086C133.131 168.179 136.953 164.025 141.626 161.024Z" fill="white"/>
<path d="M204.18 17.4343C193.722 20.7788 188.455 27.7267 187.488 29.3536C185.629 32.2344 184.341 35.4464 183.697 38.8141C193.262 39.7971 200.749 46.7338 205.119 52.4832C207.129 55.3608 207.457 57.277 209.146 61.4438C210.173 60.2524 211.584 59.4584 213.135 59.1996C213.826 59.0821 214.535 59.1196 215.21 59.3093C215.885 59.4991 216.509 59.8363 217.038 60.2968C218.517 61.6761 218.961 64.2401 218.613 66.2633C218.205 69.2002 216.729 71.8838 214.467 73.8011C214.525 74.0841 214.56 74.244 214.56 74.244C215.556 78.8111 220.573 86.4117 225.164 89.9652C225.164 89.9652 228.287 91.4819 228.866 92.6611C229.95 92.5807 229.218 93.071 230.386 93.1884C230.363 92.7023 230.38 92.2152 230.437 91.7319C231.165 87.4719 236.738 83.6354 239.841 80.7201C244.626 76.2262 251.767 67.2969 252.38 54.184C252.599 47.1612 250.892 40.2122 247.446 34.0895C239.54 20.3633 229.69 17.3652 223.573 16.137C217.69 15.0371 211.632 15.3122 205.872 16.9408C205.293 17.094 204.729 17.2585 204.18 17.4343Z" fill="#007AFF"/>
<path d="M207.48 100.686C203.689 102.499 200.542 104.674 196.248 107.42L191.81 110.758C188.591 113.031 185.655 115.681 183.065 118.651C180.068 122.105 177.705 126.061 176.088 130.338C170.575 143.88 168.637 153.166 165.087 165.587C158.431 163.757 146.301 160.308 144.557 159.55C138.704 161.736 131.768 169.172 129.802 174.779C133.161 178.856 144.917 186.099 155.232 191.793C158.531 193.683 162.008 195.243 165.613 196.45C172.907 198.428 177.627 197.997 180.919 196.947C183.143 196.229 185.225 195.128 187.071 193.695C194.078 191.616 207.027 187.654 217.851 184.317C218.012 182.139 218.178 179.923 218.349 177.671C218.501 175.65 219.266 173.723 220.543 172.149C221.819 170.575 223.546 169.428 225.492 168.861C237.902 165.256 256.082 159.877 267.257 156.584C267.713 156.449 268.186 156.381 268.661 156.382C268.127 153.947 267.536 151.244 267.536 151.244C265.687 141.723 263.347 132.226 259.28 123.423C255.214 114.619 249.324 106.486 241.396 100.901L235.348 97.671C234.301 96.8879 233.098 96.3396 231.821 96.0635C225.993 95.295 222.336 95.9831 216.838 97.3865C213.616 98.1701 210.481 99.2755 207.48 100.686Z" fill="white"/>
<path d="M216.074 209.387C216.803 198.899 217.501 188.834 218.349 177.671C218.501 175.65 219.266 173.723 220.543 172.149C221.819 170.575 223.546 169.428 225.492 168.861C237.902 165.256 256.082 159.877 267.257 156.584C268.01 156.363 268.806 156.328 269.576 156.48C270.346 156.633 271.067 156.969 271.679 157.46C272.292 157.951 272.776 158.583 273.092 159.302C273.407 160.02 273.545 160.805 273.492 161.588C272.465 177.127 272.231 179.834 271.441 190.989L216.074 209.387Z" fill="white"/>
<path d="M6.09211 126.995C21.0425 123.541 35.9995 120.105 50.9633 116.689C67.3813 112.932 83.8007 109.183 100.221 105.441C113.262 102.467 126.36 99.6797 139.359 96.5281C140.416 96.2888 141.362 95.7027 142.047 94.8631C142.731 94.0236 143.115 92.979 143.137 91.8959C143.274 89.1019 143.137 86.2646 143.137 83.4658C143.137 77.7788 143.137 72.0918 143.137 66.4047C143.137 54.9642 143.137 43.5237 143.137 32.0832C143.137 26.4632 143.137 20.8431 143.137 15.2231V6.59126C143.248 5.41042 143.137 4.21919 142.808 3.07953C142.415 2.05714 141.678 1.20313 140.725 0.663359C139.085 -0.248934 137.38 0.169837 135.642 0.452768L131.526 1.12393C128.392 1.63567 125.257 2.14929 122.122 2.66478C106.91 5.16401 91.7011 7.67877 76.4946 10.2091C60.4881 12.8664 44.4824 15.5301 28.4775 18.2003C21.8468 19.3063 15.2153 20.4131 8.58303 21.5207C7.18525 21.7546 5.78587 21.9781 4.3905 22.2216C3.37174 22.3575 2.42376 22.8176 1.6868 23.534C0.949842 24.2504 0.463052 25.185 0.298443 26.1995C0.134283 28.1287 0.111985 30.0672 0.231729 31.9996C0.231729 45.2497 0.231729 58.5006 0.231729 71.7523C0.231729 87.6136 0.231729 103.477 0.231729 119.343C0.231729 121.047 -0.0238739 122.97 0.744542 124.545C1.2392 125.486 2.03188 126.237 2.99867 126.681C3.96546 127.124 5.05188 127.234 6.08809 126.995C8.11925 126.618 7.2592 123.519 5.23286 123.894C3.29575 124.253 3.44766 121.998 3.44686 120.775V104.789C3.44686 96.8587 3.44686 88.9281 3.44686 80.9974C3.44686 66.7613 3.44686 52.5256 3.44686 38.29C3.44686 35.9451 3.44686 33.6002 3.44686 31.2553V28.4911C3.44686 27.6873 3.25476 26.5773 3.80294 25.9335C4.31045 25.493 4.96115 25.2527 5.63315 25.2575L7.80336 24.8942L12.1952 24.1611L21.5995 22.5914C36.701 20.0728 51.8032 17.5573 66.9063 15.0446C82.3068 12.4849 97.7083 9.93312 113.111 7.38941C119.466 6.34128 125.821 5.29636 132.177 4.25466L136.308 3.58109C137.433 3.39783 139.068 2.79821 139.751 4.08828C140.182 4.90572 139.915 6.3035 139.915 7.19088V19.6383C139.915 41.8511 139.918 64.0636 139.922 86.2758C139.922 87.6155 139.922 88.9551 139.922 90.2948C139.922 91.1886 140.167 92.3098 139.451 92.9955C138.939 93.3493 138.343 93.5612 137.723 93.6096L135.835 94.0396L127.42 95.955C120.799 97.4613 114.179 98.9689 107.558 100.478C91.8236 104.064 76.0898 107.654 60.3571 111.249C45.0772 114.741 29.7997 118.244 14.5246 121.756C11.4284 122.469 8.33225 123.183 5.23608 123.898C3.2218 124.36 4.07461 127.46 6.09211 126.995Z" fill="#211715"/>
<path d="M23.0825 50.2567L27.3715 49.6C27.9258 49.522 28.4329 49.2452 28.7982 48.8211C29.1709 48.3828 29.3778 47.8275 29.3826 47.2522C29.3836 46.988 29.3299 46.7266 29.2249 46.4842C29.1199 46.2419 28.9659 46.0238 28.7725 45.8439C28.5775 45.6728 28.3488 45.5443 28.1011 45.4668C27.8535 45.3893 27.5924 45.3644 27.3345 45.3938L23.0456 46.0465C22.5133 46.1161 22.0245 46.3769 21.6703 46.7803C21.3101 47.2075 21.1132 47.7487 21.1149 48.3075C21.1145 48.8482 21.3226 49.3681 21.696 49.7591C21.875 49.941 22.0925 50.0804 22.3324 50.1672C22.5723 50.254 22.8286 50.2859 23.0825 50.2607V50.2567Z" fill="#007AFF"/>
<path d="M35.3651 48.6307C36.006 48.539 36.5936 48.2228 37.0232 47.7384C37.4527 47.2539 37.6963 46.6327 37.7105 45.9854C37.7062 45.6878 37.6389 45.3945 37.513 45.1248C37.3872 44.8551 37.2056 44.6152 36.9803 44.4207C36.755 44.2262 36.4911 44.0817 36.2059 43.9966C35.9207 43.9115 35.6207 43.8877 35.3257 43.9269C34.6961 44.0001 34.1142 44.2987 33.6875 44.7675C33.2608 45.2363 33.0182 45.8436 33.0044 46.4773C33.0044 46.778 33.067 47.0754 33.1884 47.3505C33.3098 47.6256 33.4873 47.8724 33.7095 48.0751C33.9316 48.2777 34.1936 48.4318 34.4787 48.5275C34.7638 48.6231 35.0657 48.6583 35.3651 48.6307Z" fill="#007AFF"/>
<path d="M44.4205 46.9668L49.9168 46.1132C50.5111 46.0325 51.06 45.7509 51.4721 45.315C51.8734 44.8884 52.1024 44.3284 52.1151 43.7428C52.1157 43.4754 52.0572 43.211 51.9436 42.9688C51.8301 42.7266 51.6644 42.5125 51.4584 42.3419C51.239 42.1705 50.9878 42.0444 50.7193 41.9708C50.4508 41.8973 50.1704 41.8778 49.8943 41.9134C48.0488 42.2012 46.2154 42.4863 44.394 42.7687C43.8137 42.8448 43.2759 43.1137 42.8668 43.5323C42.4735 43.9467 42.2515 44.4946 42.2455 45.0659C42.2463 45.3364 42.3039 45.6037 42.4147 45.8504C42.5255 46.0972 42.6869 46.3179 42.8885 46.4982C43.098 46.6785 43.3426 46.8132 43.6069 46.8939C43.8712 46.9745 44.1493 46.9994 44.4237 46.9668H44.4205Z" fill="#007AFF"/>
<path d="M58.0406 44.8497L60.7734 44.4245C61.0791 44.4033 61.375 44.3076 61.6351 44.1456C61.9118 44.0286 62.1579 43.8495 62.3545 43.6223C62.5643 43.4163 62.7221 43.1634 62.815 42.8845C62.9521 42.6273 63.0177 42.338 63.0047 42.0469C63.0061 41.7785 62.9473 41.5132 62.8327 41.2705C62.7181 41.0278 62.5505 40.8138 62.3424 40.6443C62.1193 40.472 61.8644 40.3453 61.5923 40.2717C61.3201 40.198 61.0361 40.1788 60.7566 40.2151L58.0237 40.6427C57.4315 40.7325 56.8815 41.0032 56.4491 41.4176C56.2406 41.6155 56.0836 41.8613 55.9917 42.1337C55.8554 42.3864 55.7906 42.6716 55.8044 42.9584C55.8051 43.23 55.8643 43.4983 55.9781 43.7449C56.0918 43.9915 56.2574 44.2107 56.4636 44.3875C56.6821 44.5669 56.9347 44.7 57.2062 44.7789C57.4777 44.8578 57.7624 44.8808 58.043 44.8465L58.0406 44.8497Z" fill="#007AFF"/>
<path d="M70.8923 36.1399C69.9 37.6 69.4405 39.3572 69.591 41.1161C69.6598 42.0685 69.9034 43.0001 70.3096 43.8643C70.6637 44.535 71.1096 45.1531 71.6342 45.7009C71.8504 45.8875 72.1033 46.0268 72.3765 46.1099C72.6498 46.193 72.9374 46.2179 73.2209 46.1832C73.83 46.1066 74.3917 45.8146 74.8043 45.3601C75.215 44.9142 75.4475 44.3329 75.4578 43.7268C75.4304 43.1722 75.1958 42.6481 74.8003 42.2583C74.6146 42.0509 74.9442 42.4191 74.9611 42.4408C74.9152 42.3785 74.8658 42.319 74.8132 42.2623C74.7328 42.157 74.6476 42.0501 74.572 41.9408C74.4232 41.727 74.2927 41.5008 74.1822 41.2648L74.4089 41.7519C74.2318 41.3411 74.1099 40.9087 74.0464 40.4659C74.0737 40.6499 74.1002 40.8356 74.1267 41.0213C74.0315 40.3678 74.0266 39.7044 74.1123 39.0496L74.0319 39.6123C74.1051 39.1576 74.2336 38.7136 74.4145 38.29C74.3389 38.4629 74.2642 38.6365 74.1886 38.8101C74.3566 38.4386 74.5525 38.0805 74.7746 37.7386C74.9261 37.518 75.026 37.266 75.067 37.0015C75.1079 36.737 75.0889 36.4667 75.0112 36.2105C74.9336 35.9543 74.7993 35.7189 74.6184 35.5216C74.4375 35.3244 74.2145 35.1703 73.966 35.0709C73.4074 34.8869 72.8037 34.8918 72.2482 35.085C71.6926 35.2782 71.2162 35.649 70.8923 36.1399Z" fill="white"/>
<path d="M13.1172 45.1125C12.3082 46.5943 11.9563 48.2825 12.1061 49.9641C12.166 50.9253 12.3641 51.8728 12.6944 52.7774C12.9748 53.4642 13.3367 54.1148 13.7723 54.7153C13.9272 54.9065 14.1264 55.0572 14.3525 55.1544C14.5786 55.2516 14.825 55.2923 15.0704 55.2731C15.3309 55.2368 15.5812 55.1473 15.8056 55.0101C16.03 54.873 16.2238 54.6911 16.3749 54.4758C16.7257 53.9949 16.913 53.4143 16.9095 52.8192C16.8871 52.2666 16.6901 51.7352 16.3468 51.3016C16.1909 51.0854 16.4674 51.4624 16.481 51.4921C16.4434 51.4279 16.4021 51.3659 16.3573 51.3065C16.2865 51.1971 16.2182 51.0862 16.1539 50.9721C16.0282 50.7484 15.9186 50.5161 15.826 50.2768C15.8895 50.4424 15.9538 50.6088 16.0173 50.776C15.8672 50.352 15.7637 49.913 15.7086 49.4666C15.7322 49.6525 15.7558 49.8401 15.7793 50.0292C15.6965 49.3762 15.6879 48.7158 15.7536 48.0608C15.7333 48.2457 15.7126 48.4316 15.6917 48.6186C15.747 48.1766 15.8499 47.7419 15.9988 47.3221C15.9377 47.4901 15.8766 47.6581 15.8163 47.8277C15.9494 47.4709 16.109 47.1246 16.2938 46.7916C16.5462 46.3546 16.6155 45.8354 16.4864 45.3474C16.3573 44.8595 16.0404 44.4424 15.6049 44.1874C15.1497 43.995 14.6382 43.9838 14.1751 44.1561C13.7119 44.3284 13.3321 44.6711 13.1132 45.1141L13.1172 45.1125Z" fill="white"/>
<path d="M82.0222 36.852C81.5689 36.3633 81.9137 36.7355 82.0062 36.852C82.0871 36.9533 82.1648 37.0573 82.2393 37.1639C82.383 37.3743 82.5094 37.5961 82.617 37.827C82.5431 37.6663 82.4686 37.5079 82.3936 37.352C82.5855 37.7889 82.7156 38.2504 82.7802 38.7232L82.6998 38.1702C82.7863 38.8184 82.7863 39.4752 82.6998 40.1234L82.7802 39.5455C82.7146 39.9645 82.6 40.3743 82.4386 40.7665L82.6628 40.2279C82.4832 40.6337 82.2748 41.0262 82.0391 41.4022C81.8895 41.6437 81.7912 41.9133 81.7504 42.1943C81.7095 42.4754 81.7269 42.7618 81.8016 43.0358C81.8762 43.3098 82.0065 43.5655 82.1843 43.787C82.362 44.0085 82.5835 44.191 82.8349 44.3232C83.3891 44.5388 84.0031 44.5441 84.5611 44.3381C85.119 44.1321 85.5823 43.7291 85.8635 43.2051C86.7753 41.7472 87.2335 40.0513 87.1801 38.3326C87.1683 37.4857 87.0066 36.6475 86.7027 35.857C86.3355 35.0161 85.8124 34.2525 85.161 33.6064C84.9391 33.4394 84.6864 33.3179 84.4174 33.2489C84.1484 33.18 83.8685 33.1649 83.5936 33.2045C82.9987 33.2794 82.4455 33.5497 82.0206 33.9729C81.6174 34.3695 81.3843 34.9074 81.3704 35.4727C81.4036 35.9986 81.6368 36.4927 82.0222 36.852Z" fill="white"/>
<path d="M106.916 43.7059C105.99 45.3824 105.567 47.2905 105.698 49.2013C105.752 50.2253 105.969 51.2341 106.341 52.1898C106.652 52.8984 107.055 53.563 107.54 54.1663C107.721 54.3613 107.945 54.5113 108.195 54.6045C108.444 54.6977 108.712 54.7315 108.976 54.7032C109.544 54.6245 110.057 54.325 110.405 53.8697C110.786 53.3806 110.994 52.7796 110.998 52.1601C110.981 51.5831 110.777 51.0273 110.416 50.5766C110.25 50.35 110.544 50.7486 110.558 50.7768C110.518 50.7094 110.474 50.6442 110.426 50.5814C110.352 50.4665 110.279 50.35 110.211 50.2294C110.077 49.9918 109.961 49.7446 109.864 49.4899C109.931 49.6675 109.999 49.8444 110.065 50.022C109.906 49.5669 109.798 49.0954 109.744 48.6162C109.767 48.8182 109.791 49.02 109.815 49.2214C109.732 48.5069 109.731 47.7853 109.811 47.0705C109.786 47.2763 109.762 47.4813 109.737 47.687C109.804 47.1959 109.921 46.713 110.086 46.2458L109.881 46.8085C110.032 46.4093 110.209 46.0207 110.412 45.6454C110.692 45.143 110.775 44.5539 110.643 43.9938C110.511 43.4337 110.175 42.9431 109.7 42.6184C109.187 42.3934 108.605 42.3811 108.083 42.5842C107.561 42.7873 107.14 43.1892 106.914 43.7019L106.916 43.7059Z" fill="white"/>
<path d="M114.945 45.2395C114.549 44.6849 114.85 45.1069 114.931 45.2395C115.002 45.3537 115.07 45.4705 115.134 45.59C115.26 45.8285 115.37 46.0753 115.463 46.3286C115.398 46.1534 115.333 45.9774 115.268 45.8022C115.436 46.2898 115.548 46.7948 115.603 47.3076L115.535 46.7056C115.611 47.4061 115.611 48.1127 115.535 48.8131L115.607 48.1958C115.549 48.6374 115.448 49.0722 115.304 49.4939L115.502 48.9249C115.346 49.3481 115.162 49.7605 114.952 50.1595C114.398 51.2333 114.74 52.7814 115.64 53.2629C116.605 53.7757 117.699 53.3183 118.275 52.1705C119.083 50.5865 119.475 48.8234 119.416 47.0464C119.407 46.1309 119.272 45.2209 119.014 44.3425C118.711 43.4252 118.265 42.5616 117.692 41.7833C117.524 41.5946 117.313 41.4482 117.077 41.3559C116.842 41.2636 116.588 41.228 116.336 41.2519C115.791 41.3228 115.297 41.6063 114.96 42.0405C114.59 42.5111 114.386 43.0922 114.383 43.6914C114.403 44.2555 114.601 44.7986 114.951 45.2419L114.945 45.2395Z" fill="white"/>
<path d="M95.3786 30.9523C93.6393 31.0423 92.3741 32.6298 91.9224 34.1272C91.7721 34.6231 91.6764 35.1335 91.5446 35.6383C91.4433 36.0298 91.7962 35.2035 91.584 35.5579C91.538 35.6696 91.4763 35.7741 91.4007 35.8682L91.6001 35.5901C91.4779 35.7128 91.4977 35.7015 91.6595 35.5563C91.8283 35.4221 91.8436 35.4036 91.707 35.4993C92.0767 35.3289 92.1507 35.2838 91.9368 35.3506C91.4385 35.5353 91.0149 35.8791 90.7315 36.3288C90.4482 36.7785 90.321 37.309 90.3695 37.8383C90.4437 38.335 90.7082 38.7834 91.1071 39.0886C91.5059 39.3939 92.0078 39.5321 92.5067 39.474C92.3242 39.504 92.1368 39.4826 91.9658 39.4121C91.7809 39.3365 91.7472 39.3365 91.8918 39.3992C91.6161 39.1999 91.5406 39.1516 91.6644 39.2521C91.7065 39.2848 91.7461 39.3208 91.7825 39.3598C91.7873 39.3526 91.4554 38.8936 91.7158 39.3116C91.7632 39.392 91.8701 39.6966 91.7681 39.3767C91.6547 39.0198 91.8002 39.4788 91.8259 39.5503C91.8629 39.6556 91.8967 39.7609 91.932 39.867C92.0124 40.1194 92.1008 40.3718 92.2037 40.6177C92.4462 41.305 92.8614 41.9184 93.4094 42.3989C93.7987 42.7204 94.2592 42.9441 94.7525 43.0516C95.2775 43.137 95.8156 43.087 96.3159 42.9061C96.8662 42.6846 97.3204 42.2755 97.5979 41.7511C97.8824 41.2241 97.9606 40.6101 97.8173 40.0286C97.737 39.7663 97.6027 39.5237 97.4233 39.3163C97.2438 39.1089 97.023 38.9412 96.775 38.824C96.527 38.7068 96.2572 38.6427 95.983 38.6357C95.7088 38.6287 95.4362 38.6791 95.1825 38.7835C95.5171 38.6566 95.887 38.6586 96.2202 38.7891C95.914 38.6621 96.4814 39.0447 96.3335 38.8695C96.0924 38.5794 96.3882 38.88 96.397 38.9644C96.3467 38.8516 96.2856 38.7439 96.2146 38.6429C96.3311 38.9202 96.3601 38.9861 96.3022 38.8374C96.2781 38.7763 96.2556 38.7136 96.2339 38.6517C96.1977 38.5472 96.1631 38.4419 96.1294 38.3366C96.0538 38.1051 95.9783 37.8744 95.8882 37.651C95.6641 36.9965 95.284 36.4064 94.7806 35.9317C94.149 35.4062 93.3371 35.1483 92.518 35.2131C92.7077 36.5619 92.8971 37.9363 93.0863 39.3365C94.5644 38.8977 95.4751 37.3271 95.8135 35.9695C95.9365 35.4784 96.0305 34.9921 96.18 34.5098C96.2604 34.2438 95.9389 34.9664 96.139 34.6448C96.3617 34.2864 95.7789 35.009 96.0747 34.7196C96.3705 34.4302 95.6351 35.0146 95.9751 34.8088L95.6471 34.9873C95.2372 35.062 95.148 35.0885 95.3714 35.0757C95.9452 34.9998 96.4744 34.7258 96.8674 34.301C97.2605 33.8763 97.4927 33.3274 97.5239 32.7495C97.5191 32.4845 97.4575 32.2236 97.3434 31.9843C97.2292 31.7451 97.0651 31.5331 96.8622 31.3626C96.6592 31.192 96.4221 31.067 96.1667 30.9958C95.9114 30.9246 95.6438 30.9089 95.3819 30.9499L95.3786 30.9523Z" fill="white"/>
<path d="M37.1728 62.6776L41.4553 61.9598C42.0556 61.8634 42.5973 61.5439 42.9721 61.0652C43.3724 60.5474 43.5908 59.912 43.5934 59.2575C43.6003 58.6452 43.3698 58.0541 42.9504 57.6081C42.7533 57.4081 42.5136 57.2553 42.2491 57.1612C41.9846 57.0671 41.7022 57.0341 41.4232 57.0647L37.1382 57.7584C36.5509 57.8455 36.0193 58.1545 35.6528 58.6217C35.2603 59.1375 35.0488 59.7683 35.0508 60.4165C35.0447 61.0372 35.2679 61.6383 35.6777 62.1045C35.8645 62.3104 36.0972 62.4694 36.357 62.5686C36.6168 62.6677 36.8962 62.7043 37.1728 62.6751V62.6776Z" fill="white"/>
<path d="M50.8266 60.3948L52.8851 60.0516C53.1914 60.0299 53.4857 59.9239 53.7355 59.7454C54.0159 59.6106 54.2595 59.4098 54.4453 59.1602C54.6578 58.9201 54.8131 58.6348 54.8994 58.3259C55.0358 58.027 55.0999 57.7001 55.0867 57.3718C55.0588 57.1602 55.032 56.9496 55.0063 56.74C54.9093 56.362 54.7105 56.0179 54.4316 55.745L53.9815 55.4234C53.6384 55.2429 53.2481 55.1719 52.8634 55.2201C52.1915 55.3093 51.4889 55.4419 50.8033 55.5521C50.4995 55.573 50.2071 55.6758 49.9569 55.8495C49.6793 55.9792 49.4378 56.1752 49.2536 56.4201C49.0427 56.6561 48.889 56.9375 48.8043 57.2424C48.6694 57.5411 48.6066 57.8674 48.6211 58.1949L48.7014 58.8323C48.7973 59.2162 48.9941 59.5675 49.2713 59.8499L49.7174 60.1843C50.0565 60.3682 50.4443 60.4426 50.8274 60.3973L50.8266 60.3948Z" fill="white"/>
<path d="M65.3598 57.9827C68.3273 57.4924 71.2963 57.0034 74.2665 56.5158C74.8866 56.4067 75.449 56.0843 75.8565 55.6043C76.264 55.1243 76.4908 54.517 76.4978 53.8874C76.5084 53.5965 76.4568 53.3068 76.3463 53.0375C76.2357 52.7683 76.0689 52.5257 75.857 52.3262C75.6451 52.1267 75.393 51.9748 75.1175 51.8807C74.8421 51.7866 74.5498 51.7525 74.2601 51.7807C71.2914 52.2549 68.3198 52.7308 65.3453 53.2082C64.7244 53.3105 64.1598 53.6293 63.7514 54.108C63.343 54.5867 63.1172 55.1945 63.114 55.8237C63.1017 56.1179 63.152 56.4114 63.2616 56.6848C63.3712 56.9581 63.5377 57.205 63.75 57.4091C63.9622 57.6132 64.2154 57.7699 64.4928 57.8688C64.7702 57.9677 65.0663 58.0065 65.3598 57.9827Z" fill="#007AFF"/>
<path d="M84.2736 54.8801L85.7759 54.639C86.08 54.6177 86.3728 54.5153 86.6239 54.3424C86.9014 54.2139 87.1442 54.021 87.332 53.7797C87.5425 53.5497 87.698 53.2748 87.7869 52.9759C87.9231 52.6874 87.9882 52.3704 87.9766 52.0516C87.9509 51.8469 87.9241 51.6425 87.8962 51.4383C87.8019 51.0708 87.607 50.7368 87.3336 50.4738C87.1857 50.3666 87.0375 50.2616 86.8891 50.1587C86.5472 49.9823 86.16 49.9133 85.7783 49.961C85.2896 50.0245 84.7768 50.1217 84.2744 50.2021C83.9699 50.2233 83.6762 50.3236 83.4224 50.4931C83.1434 50.6195 82.8987 50.8107 82.7086 51.0509C82.496 51.2784 82.3392 51.5522 82.2505 51.8507C82.1126 52.1387 82.047 52.4559 82.0592 52.775C82.0857 52.98 82.1114 53.1857 82.1396 53.3915C82.2363 53.7646 82.4334 54.104 82.7094 54.3729C82.8589 54.4801 83.0082 54.5873 83.1571 54.6944C83.501 54.8711 83.8897 54.9413 84.2736 54.8962V54.8801Z" fill="#007AFF"/>
<path d="M96.1768 52.955L100.758 52.2212C101.341 52.1356 101.871 51.8368 102.246 51.3828C102.638 50.9001 102.855 50.2995 102.863 49.678C102.875 49.0957 102.657 48.5322 102.256 48.1098C102.063 47.9174 101.83 47.7707 101.573 47.6805C101.316 47.5904 101.042 47.5591 100.771 47.589C99.2558 47.8253 97.727 48.0646 96.1849 48.3068C95.5948 48.3911 95.0552 48.686 94.6657 49.1371C94.2633 49.6152 94.0387 50.2178 94.0299 50.8427C94.0211 51.4332 94.2472 52.0031 94.6585 52.427C94.8564 52.6221 95.0955 52.7705 95.3582 52.8613C95.6209 52.9521 95.9006 52.983 96.1768 52.9518V52.955Z" fill="#007AFF"/>
<path d="M27.4285 89.1888C28.6085 89.028 29.7442 87.4518 29.6791 85.8056C29.614 84.1595 28.6535 82.8815 27.3883 83.0462C26.2092 83.1998 25.1032 84.7575 25.1683 86.4149C25.2334 88.0723 26.1658 89.3656 27.4301 89.1888H27.4285Z" fill="white"/>
<path d="M35.7831 87.1407L37.4919 86.7911C37.7918 86.7608 38.0754 86.6397 38.3045 86.4438C38.5805 86.2842 38.8134 86.0596 38.9829 85.7896C39.1901 85.5133 39.3379 85.1973 39.417 84.8612C39.5476 84.5224 39.6078 84.1606 39.5938 83.7978L39.5134 83.0929C39.4241 82.6818 39.2338 82.2995 38.9596 81.9804L38.5272 81.6179C38.2088 81.4178 37.8294 81.338 37.4574 81.3929C36.9011 81.4829 36.316 81.6163 35.7477 81.728C35.4513 81.7557 35.1706 81.8742 34.9439 82.0672C34.6707 82.2245 34.4412 82.4474 34.276 82.7159C34.0718 82.9932 33.9273 83.3099 33.8516 83.6459C33.723 83.9873 33.6645 84.3512 33.6796 84.7157L33.76 85.4271C33.8452 85.8412 34.0316 86.2278 34.3025 86.5524L34.7277 86.9181C35.0427 87.1156 35.4176 87.1945 35.7855 87.1407H35.7831Z" fill="white"/>
<path d="M45.7854 85.1047L50.6884 84.1136C51.3111 83.9891 51.8637 83.6339 52.2357 83.1193C52.6471 82.5498 52.8695 81.8655 52.8715 81.1629C52.8825 80.5103 52.6495 79.8772 52.218 79.3874C52.023 79.1754 51.7797 79.0136 51.5088 78.9157C51.2379 78.8177 50.9474 78.7865 50.6619 78.8247C49.0174 79.143 47.3814 79.46 45.754 79.7756C45.1368 79.8935 44.5894 80.2462 44.2268 80.7594C43.8214 81.3378 43.6044 82.0272 43.6055 82.7335C43.5942 83.3928 43.8227 84.0338 44.2485 84.5372C44.4371 84.7513 44.6758 84.9152 44.9434 85.0142C45.2109 85.1133 45.4988 85.1444 45.7813 85.1047H45.7854Z" fill="white"/>
<path d="M61.0998 82.027C64.458 81.3577 67.8242 80.6898 71.1985 80.0232C71.8399 79.8676 72.4094 79.4988 72.8136 78.9771C73.2179 78.4555 73.4329 77.8119 73.4234 77.1521C73.3703 75.8314 72.4388 74.6603 71.1897 74.9015C67.8186 75.5397 64.4494 76.1808 61.0821 76.8249C60.4369 76.9834 59.8654 77.358 59.4627 77.8866C59.0601 78.4151 58.8507 79.0656 58.8693 79.7298C58.9256 81.0801 59.8555 82.2786 61.0998 82.0302V82.027Z" fill="white"/>
<path d="M90.0665 76.632C90.7667 76.4693 91.3901 76.0717 91.8328 75.5052C92.2755 74.9388 92.5108 74.2378 92.4995 73.519C92.4433 72.0231 91.4409 70.8842 90.0737 71.0602C89.3702 71.2173 88.7425 71.6123 88.2966 72.1786C87.8507 72.7449 87.6139 73.4477 87.6262 74.1684C87.6841 75.6755 88.7 76.8209 90.0665 76.632Z" fill="white"/>
<path d="M106.353 73.5013C107.022 73.3391 107.614 72.952 108.032 72.4049C108.449 71.8578 108.666 71.1839 108.646 70.496C108.595 69.0387 107.657 67.919 106.368 68.0774C105.695 68.2346 105.096 68.6191 104.674 69.1662C104.251 69.7132 104.03 70.3893 104.048 71.0803C104.1 72.548 105.063 73.6701 106.353 73.4997V73.5013Z" fill="white"/>
<path d="M114.075 72.0449C114.723 71.88 115.295 71.4971 115.694 70.9605C116.093 70.424 116.296 69.7664 116.267 69.0982C116.218 67.661 115.325 66.547 114.091 66.6933C113.437 66.8536 112.859 67.2343 112.454 67.7713C112.049 68.3083 111.842 68.9685 111.867 69.6408C111.916 71.0876 112.841 72.2032 114.075 72.0449Z" fill="white"/>
<path d="M97.1969 74.9577L99.4539 74.5253C99.7501 74.4966 100.032 74.3852 100.268 74.2038C100.539 74.0622 100.771 73.8577 100.947 73.6074C101.151 73.3605 101.3 73.0724 101.383 72.7626C101.514 72.4584 101.577 72.1291 101.566 71.7981L101.493 71.155C101.41 70.7759 101.224 70.4271 100.955 70.1471C100.767 69.9467 100.534 69.7944 100.275 69.7028C100.016 69.6112 99.7382 69.583 99.466 69.6206L97.2082 70.0354C96.9096 70.0619 96.6244 70.1716 96.3851 70.3521C96.1103 70.4925 95.8735 70.697 95.6946 70.9485C95.3098 71.4813 95.0901 72.1155 95.0629 72.7723L95.1384 73.4153C95.2243 73.7981 95.4142 74.1497 95.6874 74.4313C95.8792 74.6321 96.1164 74.7839 96.3791 74.8741C96.6417 74.9643 96.9222 74.9902 97.1969 74.9497V74.9577Z" fill="white"/>
<path d="M79.6133 69.8409C78.5513 71.8476 78.0722 74.1115 78.23 76.3764C78.2936 77.5489 78.5438 78.7037 78.9711 79.7973C79.3285 80.6045 79.7962 81.3581 80.3608 82.0367C80.5619 82.2403 80.8086 82.3931 81.0804 82.4826C81.3523 82.572 81.6415 82.5955 81.9242 82.5511C82.5469 82.4376 83.1039 82.0931 83.4835 81.5866C83.896 81.048 84.1217 80.3897 84.1265 79.7113C84.1069 79.0914 83.8806 78.4958 83.4835 78.0194C83.2987 77.7782 83.588 78.1753 83.6242 78.2083C83.5627 78.1392 83.5088 78.0637 83.4634 77.9832C83.383 77.8658 83.3059 77.7453 83.2319 77.6215C83.1315 77.4543 82.8172 77.042 82.83 76.8177C82.83 76.886 83.039 77.4334 82.9209 77.0267C82.8992 76.9544 82.8751 76.8828 82.8542 76.8089C82.8108 76.657 82.7738 76.5018 82.7408 76.3443C82.6781 76.1585 82.6452 75.964 82.6436 75.768C82.6275 75.8025 82.6998 76.3885 82.6749 76.0043C82.6677 75.8773 82.6548 75.7519 82.6468 75.6249C82.6185 75.1844 82.6164 74.7426 82.6404 74.3019C82.6468 74.2046 82.6556 74.1074 82.6629 74.0101C82.6918 73.613 82.6243 74.2561 82.6331 74.2633C82.6428 74.0546 82.6801 73.8481 82.744 73.6492C82.7832 73.4713 82.8284 73.295 82.8799 73.1203C82.9043 73.0103 82.9384 72.9027 82.982 72.7988C82.9522 72.8567 82.7649 73.3679 82.9016 73.0399C83.0623 72.6453 83.2392 72.2619 83.4361 71.8849C84.0566 70.6977 83.6772 69.0532 82.6444 68.5693C82.0729 68.3384 81.4333 68.3433 80.8654 68.5828C80.2976 68.8223 79.8476 69.277 79.6141 69.8473L79.6133 69.8409Z" fill="white"/>
<path d="M119.873 65.568C119.837 65.5133 119.626 65.1709 119.768 65.4121C119.815 65.4924 119.865 65.5728 119.913 65.6532C119.986 65.781 120.056 65.912 120.122 66.047C120.195 66.196 120.263 66.349 120.327 66.506C120.35 66.5779 120.376 66.6484 120.407 66.7174C120.38 66.7222 120.246 66.1813 120.327 66.5028C120.418 66.8351 120.493 67.1718 120.55 67.5115C120.57 67.6192 120.585 67.7279 120.593 67.8371C120.593 67.7519 120.548 67.2953 120.566 67.6273C120.578 67.8483 120.592 68.0686 120.597 68.2912C120.605 68.6835 120.589 69.0725 120.564 69.4663C120.543 69.8144 120.564 69.2324 120.593 69.2003C120.573 69.2774 120.561 69.3567 120.559 69.4366C120.531 69.607 120.497 69.7774 120.458 69.9454C120.423 70.0917 120.377 70.2331 120.341 70.3786C120.269 70.6519 120.547 69.8055 120.409 70.1608C120.383 70.2307 120.358 70.3023 120.329 70.3722C120.201 70.7034 120.054 71.0249 119.901 71.3424C119.368 72.454 119.699 74.0286 120.568 74.4964C121.494 74.9948 122.551 74.5028 123.106 73.3221C123.938 71.5705 124.339 69.645 124.274 67.7069C124.263 66.7034 124.122 65.7056 123.854 64.7385C123.548 63.7478 123.095 62.8085 122.51 61.9518C122.355 61.7595 122.154 61.6089 121.926 61.5135C121.698 61.418 121.45 61.3808 121.204 61.4052C120.939 61.4466 120.684 61.5416 120.456 61.6845C120.228 61.8274 120.032 62.0151 119.879 62.2363C119.518 62.7396 119.324 63.3429 119.323 63.962C119.338 64.5412 119.529 65.102 119.871 65.5696L119.873 65.568Z" fill="white"/>
<path d="M129.425 60.136C129.181 60.1496 128.949 60.2425 128.764 60.4004C128.536 60.5283 128.344 60.7123 128.207 60.9349C128.034 61.1684 127.912 61.4349 127.847 61.7178C127.737 62.0082 127.685 62.3174 127.696 62.6277L127.757 63.2394C127.828 63.596 127.981 63.9311 128.204 64.2176L128.555 64.5431C128.808 64.7198 129.117 64.7994 129.424 64.7674C129.666 64.7516 129.897 64.657 130.08 64.4981C130.305 64.3692 130.492 64.1849 130.625 63.9628C130.792 63.7293 130.911 63.464 130.973 63.1831C131.078 62.8935 131.127 62.5862 131.116 62.2781L131.057 61.6704C130.99 61.3162 130.842 60.9822 130.625 60.6946L130.283 60.3675C130.035 60.1883 129.729 60.106 129.425 60.136Z" fill="white"/>
<path d="M127.914 68.6352L127.995 70.9035C127.982 71.2042 128.033 71.5041 128.144 71.7836C128.204 72.045 128.328 72.2876 128.503 72.4902C128.641 72.683 128.835 72.8275 129.06 72.9033C129.258 73.0219 129.494 73.0639 129.721 73.0215L130.174 72.8832C130.479 72.7228 130.737 72.486 130.922 72.196L131.185 71.696C131.34 71.3165 131.417 70.9099 131.413 70.5C131.4 69.7629 131.358 68.9977 131.333 68.2494C131.345 67.9508 131.296 67.6528 131.188 67.3741C131.13 67.1142 131.011 66.872 130.841 66.6676C130.709 66.4733 130.518 66.3261 130.297 66.2472C130.101 66.1254 129.868 66.0799 129.642 66.1194L129.186 66.252C128.877 66.4091 128.615 66.6441 128.425 66.9336C128.334 67.1008 128.243 67.2672 128.152 67.4352C127.993 67.8172 127.911 68.227 127.911 68.6409L127.914 68.6352Z" fill="white"/>
<path d="M143.541 159.616C148.318 158.33 153.095 157.041 157.872 155.748C159.866 155.206 159.02 152.103 157.018 152.647C152.242 153.945 147.465 155.234 142.686 156.516C140.69 157.055 141.538 160.156 143.541 159.616Z" fill="#211715"/>
<path d="M107.261 165.416C97.9827 162.898 88.7052 160.376 79.4285 157.852C79.2442 157.782 79.0536 157.73 78.8594 157.697C78.2518 157.661 79.1882 157.867 79.0588 158.348C78.7967 159.324 78.4318 158.738 78.779 158.757C78.9168 158.739 79.0519 158.704 79.1809 158.652L80.8504 158.22L84.5285 157.265C87.5459 156.482 90.5633 155.697 93.5807 154.91C108.102 151.128 122.624 147.34 137.146 143.545L147.244 140.907L151.397 139.823C153.219 139.347 154.838 138.854 156.748 139.268C158.766 139.703 159.628 136.605 157.603 136.167C156.136 135.808 154.608 135.77 153.125 136.056C152.504 136.187 151.889 136.371 151.276 136.532L147.632 137.483L138.528 139.861C130.925 141.847 123.322 143.832 115.718 145.816C108.056 147.816 100.393 149.814 92.7303 151.81C89.6223 152.619 86.5144 153.428 83.4064 154.235L79.6198 155.218C77.9809 155.642 75.9537 155.99 75.8653 158.111C75.7504 160.844 79.23 161.133 81.1815 161.665C83.744 162.362 86.3062 163.058 88.8681 163.755C94.7143 165.343 100.56 166.93 106.407 168.516C108.406 169.059 109.259 165.959 107.261 165.416Z" fill="#211715"/>
<path d="M112.735 166.903C112.288 166.782 111.841 166.662 111.392 166.542C111.185 166.475 110.962 166.465 110.749 166.513C110.537 166.523 110.33 166.588 110.151 166.704C109.802 166.929 109.541 167.268 109.413 167.664L109.356 168.092C109.355 168.377 109.431 168.657 109.575 168.903L109.826 169.229C110.023 169.426 110.267 169.568 110.536 169.643C110.983 169.76 111.431 169.884 111.878 170.004C112.086 170.071 112.308 170.081 112.521 170.032C112.734 170.023 112.94 169.958 113.119 169.842C113.469 169.617 113.73 169.277 113.858 168.881L113.916 168.454C113.916 168.169 113.84 167.889 113.696 167.643L113.445 167.317C113.248 167.12 113.003 166.977 112.735 166.903Z" fill="#211715"/>
<path d="M154.236 141.222C154.231 141.462 154.277 141.476 154.375 141.266C154.491 141.13 154.617 141.003 154.752 140.886C154.997 140.694 155.254 140.519 155.522 140.36C156.182 139.938 156.877 139.572 157.6 139.268C159.177 138.623 160.847 138.236 162.547 138.121C165.998 137.967 169.443 138.528 172.668 139.766C174.624 140.453 175.465 137.348 173.522 136.665C169.194 134.999 164.501 134.51 159.922 135.248C156.976 135.811 149.091 138.514 151.46 142.844C152.453 144.661 155.23 143.04 154.236 141.222Z" fill="#211715"/>
<path d="M158.336 139.402C156.247 139.758 154.193 140.293 152.197 141.001C150.182 141.814 147.43 143.362 147.488 145.904C147.516 146.521 147.7 147.12 148.024 147.646C148.347 148.172 148.799 148.607 149.337 148.91C150.381 149.407 151.556 149.561 152.693 149.347C153.899 149.235 155.099 149.04 156.303 148.893C156.932 148.817 157.561 148.752 158.191 148.693C158.482 148.665 158.773 148.639 159.065 148.612L159.647 148.562L159.938 148.537C160.138 148.53 160.133 148.518 159.921 148.501C159.956 148.55 159.645 148.414 159.84 148.493C159.903 148.518 159.979 148.525 160.044 148.544C160.229 148.599 160.414 148.652 160.597 148.711C161.026 148.85 161.449 149.005 161.871 149.164C162.138 149.258 162.396 149.378 162.64 149.521C162.828 149.667 163.023 149.803 163.225 149.928C163.313 149.914 163.024 150.089 163.225 149.812C163.457 149.495 163.088 148.71 164.08 149.03C162.106 148.393 161.261 151.496 163.224 152.131C163.549 152.221 163.889 152.246 164.223 152.203C164.557 152.16 164.88 152.05 165.171 151.88C165.462 151.71 165.716 151.483 165.918 151.213C166.119 150.943 166.265 150.635 166.345 150.308C166.683 148.921 165.802 147.805 164.737 147.052C164.003 146.579 163.21 146.203 162.379 145.933C161.726 145.653 161.042 145.454 160.34 145.339C159.085 145.308 157.829 145.41 156.595 145.643C155.332 145.79 154.077 145.998 152.811 146.12C152.43 146.157 150.902 146.501 150.733 145.931C150.591 145.454 151.913 144.64 152.273 144.45C154.396 143.33 156.879 143.004 159.196 142.503C161.217 142.066 160.361 138.966 158.341 139.403L158.336 139.402Z" fill="#211715"/>
<path d="M168.389 153.585C167.649 153.456 166.926 153.244 166.233 152.954L166.617 153.115C166.046 152.872 165.499 152.576 164.984 152.231C164.864 152.151 164.746 152.068 164.63 151.982C164.415 151.821 164.63 152.016 164.715 152.049C164.642 152.004 164.575 151.95 164.514 151.889C164.273 151.685 164.039 151.468 163.818 151.246C163.516 150.944 163.107 150.775 162.681 150.774C162.255 150.774 161.846 150.944 161.544 151.245C161.243 151.547 161.073 151.955 161.073 152.382C161.073 152.808 161.242 153.217 161.544 153.519C163.165 155.169 165.258 156.276 167.534 156.69C167.953 156.791 168.394 156.734 168.773 156.529C169.046 156.369 169.266 156.133 169.406 155.849C169.545 155.565 169.598 155.246 169.557 154.932C169.516 154.618 169.383 154.323 169.175 154.085C168.967 153.846 168.694 153.674 168.389 153.59V153.585Z" fill="#211715"/>
<path d="M142.712 158.945C141.722 156.28 140.405 153.749 138.793 151.408C138.356 150.727 137.805 150.126 137.163 149.633C136.482 149.183 135.694 148.918 134.879 148.865C134.09 148.8 133.297 148.925 132.566 149.229C131.835 149.533 131.187 150.007 130.677 150.612C130.386 150.919 130.223 151.326 130.223 151.749C130.223 152.172 130.386 152.579 130.677 152.886C130.981 153.183 131.389 153.35 131.814 153.35C132.239 153.35 132.647 153.183 132.951 152.886C133.035 152.778 133.124 152.684 133.217 152.583C133.474 152.305 132.98 152.708 133.309 152.503C133.539 152.359 133.778 152.239 134.015 152.108C134.184 152.014 133.812 152.151 134.102 152.087C134.461 152.007 133.911 152.06 134.263 152.056C134.418 152.056 134.57 152.056 134.725 152.064C134.428 152.055 134.872 152.095 134.92 152.106C134.968 152.118 135.343 152.228 135.141 152.158C134.956 152.094 135.331 152.275 135.374 152.294C135.521 152.356 135.229 152.133 135.429 152.331C135.528 152.429 135.625 152.524 135.72 152.626C136.02 152.947 135.553 152.379 135.811 152.741C135.891 152.857 135.979 152.973 136.061 153.09C136.217 153.313 136.369 153.54 136.518 153.768C137.162 154.765 137.752 155.796 138.286 156.856C138.548 157.371 138.799 157.893 139.038 158.42C139.1 158.56 139.163 158.699 139.224 158.84C139.232 158.859 139.42 159.311 139.296 159C139.403 159.264 139.51 159.529 139.612 159.795C139.733 160.202 140.006 160.546 140.375 160.755C140.743 160.965 141.179 161.024 141.59 160.921C141.999 160.804 142.346 160.532 142.556 160.162C142.767 159.792 142.824 159.355 142.715 158.943L142.712 158.945Z" fill="#211715"/>
<path d="M132.392 151.316C130.694 148.703 127.757 147.518 124.734 147.348C123.086 147.288 121.438 147.409 119.817 147.708C118.3 147.961 116.892 148.657 115.771 149.71C114.276 151.146 116.552 153.417 118.045 151.983C118.816 151.315 119.773 150.899 120.787 150.79C122.004 150.595 123.237 150.515 124.469 150.549C126.387 150.619 128.516 151.245 129.613 152.936C130.739 154.665 133.521 153.056 132.39 151.314L132.392 151.316Z" fill="#211715"/>
<path d="M122.435 150.494C119.721 149.869 116.776 149.546 114.125 150.615C112.825 151.194 111.578 151.884 110.396 152.675C109.013 153.531 107.528 154.772 107.761 156.604C107.774 157.027 107.948 157.428 108.247 157.726C108.545 158.025 108.946 158.199 109.369 158.212C109.794 158.21 110.202 158.04 110.503 157.739C110.804 157.438 110.974 157.03 110.976 156.604C110.951 156.483 110.943 156.358 110.954 156.235C110.935 156.342 110.923 156.362 110.987 156.264C111.078 156.122 111.189 155.994 111.318 155.885C111.403 155.809 111.406 155.805 111.327 155.885L111.525 155.76C111.659 155.684 111.788 155.6 111.92 155.514C112.216 155.33 112.514 155.148 112.814 154.967C113.376 154.626 113.939 154.282 114.518 153.962C114.815 153.775 115.136 153.63 115.473 153.532C116.512 153.211 117.602 153.082 118.688 153.15C118.929 153.155 119.17 153.167 119.411 153.187C119.514 153.195 119.617 153.206 119.719 153.216C119.889 153.234 119.546 153.181 119.841 153.235C120.424 153.342 121.002 153.463 121.58 153.596C121.783 153.652 121.996 153.667 122.205 153.641C122.415 153.615 122.617 153.548 122.801 153.444C122.984 153.34 123.146 153.2 123.275 153.034C123.405 152.867 123.501 152.676 123.557 152.473C123.613 152.269 123.629 152.057 123.602 151.847C123.576 151.638 123.509 151.435 123.405 151.252C123.301 151.068 123.161 150.907 122.995 150.777C122.828 150.647 122.638 150.552 122.434 150.496L122.435 150.494Z" fill="#211715"/>
<path d="M117.239 154.228C114.051 154.246 110.543 154.669 107.771 156.366C106.312 157.16 105.167 158.428 104.523 159.959C104.242 160.736 104.234 161.586 104.502 162.368C104.769 163.15 105.296 163.817 105.995 164.259C107.776 165.321 109.395 162.543 107.618 161.483C107.385 161.344 107.63 161.437 107.624 161.525C107.67 161.598 107.668 161.594 107.618 161.516C107.59 161.475 107.565 161.433 107.544 161.389C107.49 161.288 107.497 161.302 107.563 161.432L107.525 161.288C107.466 161.456 107.605 161.4 107.525 161.27V161.119C107.493 161.28 107.492 161.294 107.521 161.162C107.53 161.12 107.597 160.874 107.578 160.921C107.56 160.967 107.711 160.68 107.739 160.626C107.739 160.626 107.888 160.392 107.807 160.504C108.49 159.661 109.378 159.008 110.386 158.608C112.567 157.758 114.899 157.36 117.238 157.44C117.665 157.44 118.074 157.271 118.375 156.97C118.677 156.668 118.846 156.259 118.846 155.833C118.846 155.406 118.677 154.998 118.375 154.696C118.074 154.395 117.665 154.225 117.238 154.225L117.239 154.228Z" fill="#211715"/>
<path d="M109.484 160.447C107.139 162.064 104.145 165.124 105.565 168.225C105.945 168.896 106.517 169.439 107.208 169.782C107.899 170.126 108.677 170.255 109.442 170.154C110.288 170.001 111.118 169.772 111.922 169.468C112.887 169.152 113.842 168.795 114.827 168.557C115.236 168.441 115.584 168.168 115.794 167.798C116.005 167.428 116.062 166.991 115.952 166.579C115.832 166.173 115.559 165.828 115.19 165.618C114.822 165.409 114.386 165.35 113.975 165.454C112.441 165.824 110.975 166.445 109.457 166.869C109.321 166.907 109.185 166.944 109.048 166.975C108.994 166.987 108.937 166.993 108.883 167.009C108.722 167.056 109.369 166.996 109.131 166.975C109.054 166.968 108.683 166.945 108.94 166.984C109.216 167.025 108.806 166.945 108.74 166.926C108.675 166.896 108.607 166.873 108.537 166.857C108.554 166.857 108.814 167 108.675 166.91C108.615 166.873 108.549 166.845 108.488 166.808C108.447 166.783 108.243 166.641 108.437 166.783C108.631 166.926 108.357 166.669 108.306 166.631C108.501 166.787 108.492 166.878 108.414 166.747C108.385 166.699 108.324 166.556 108.427 166.793C108.557 167.096 108.432 166.695 108.407 166.66C108.527 166.821 108.429 167.013 108.428 166.816C108.428 166.75 108.422 166.686 108.422 166.622C108.422 166.632 108.438 166.423 108.433 166.42C108.451 166.434 108.353 166.835 108.419 166.531C108.444 166.421 108.468 166.311 108.5 166.202C108.522 166.126 108.55 166.053 108.574 165.977C108.639 165.771 108.535 165.935 108.555 166.017C108.534 165.932 108.767 165.616 108.808 165.552C108.898 165.407 108.997 165.267 109.098 165.128C109.131 165.082 109.167 165.036 109.201 164.989C109.318 164.829 109.001 165.227 109.196 165C109.39 164.773 109.584 164.543 109.795 164.328C110.022 164.097 110.26 163.877 110.509 163.67L110.645 163.557C110.877 163.365 110.489 163.666 110.652 163.551C110.815 163.435 110.955 163.33 111.11 163.224C111.292 163.118 111.451 162.976 111.579 162.808C111.707 162.64 111.8 162.448 111.853 162.244C111.907 162.04 111.92 161.827 111.891 161.618C111.862 161.409 111.793 161.207 111.686 161.025C111.58 160.842 111.438 160.683 111.27 160.555C111.102 160.428 110.91 160.334 110.706 160.281C110.293 160.173 109.855 160.233 109.487 160.448L109.484 160.447Z" fill="#211715"/>
<path d="M113.268 168.182C115.369 170.307 117.903 171.954 120.698 173.012C123.493 174.069 126.483 174.513 129.465 174.312C129.888 174.302 130.291 174.129 130.59 173.83C130.89 173.53 131.062 173.127 131.072 172.704C131.069 172.279 130.898 171.872 130.598 171.571C130.297 171.27 129.89 171.1 129.465 171.097C126.906 171.294 124.336 170.932 121.931 170.036C119.527 169.14 117.346 167.731 115.541 165.908C114.088 164.431 111.814 166.705 113.268 168.182Z" fill="#211715"/>
<path d="M187.786 41.2881C192.704 42.9809 197.122 45.8757 200.637 49.7093C202.241 51.277 203.635 53.0461 204.783 54.9725C205.805 57.0806 206.691 59.2521 207.436 61.4735C207.559 61.878 207.833 62.22 208.201 62.4292C208.568 62.6385 209.002 62.6991 209.413 62.5988C209.823 62.4833 210.171 62.211 210.381 61.841C210.592 61.4709 210.648 61.0328 210.538 60.6215C209.703 58.1374 208.71 55.7093 207.564 53.3521C206.276 51.189 204.713 49.2015 202.915 47.4386C199.001 43.214 194.094 40.0342 188.638 38.1879C186.661 37.5609 185.816 40.6644 187.783 41.2881H187.786Z" fill="#211715"/>
<path d="M211.006 61.9099C212.515 60.6319 215.143 60.091 216.391 62.0233C217.524 63.7779 217.157 66.0703 216.552 67.9359C215.285 71.8399 211.981 74.0808 208.168 75.1458C206.178 75.702 207.023 78.8054 209.022 78.246C213.109 77.1046 216.899 74.7624 218.817 70.8512C219.851 68.8682 220.367 66.6566 220.32 64.421C220.177 62.0152 219.194 59.419 216.923 58.2648C214.114 56.8357 211.027 57.6965 208.735 59.6393C208.437 59.9425 208.27 60.3506 208.27 60.7758C208.27 61.201 208.437 61.6091 208.735 61.9124C209.04 62.206 209.448 62.3699 209.872 62.3699C210.295 62.3699 210.703 62.206 211.009 61.9124L211.006 61.9099Z" fill="#211715"/>
<path d="M184.886 54.1639C184.217 55.5496 183.934 58.944 186.505 59.6586C189.971 60.2043 190.832 56.1862 189.986 54.0916C189.292 52.3763 186.595 51.2679 184.886 54.1639Z" fill="#211715"/>
<path d="M202.353 97.2032C201.894 95.8135 201.353 94.4535 200.757 93.116C200.566 92.686 200.366 92.26 200.162 91.8356C200.106 91.719 200.056 91.5944 199.992 91.4843C199.822 91.1925 200.21 92.0196 199.962 91.4305C198.715 88.4749 195.479 89.7112 193.001 89.5689C190.348 89.4267 187.743 88.8038 185.312 87.7306C184.263 87.2336 183.326 86.5259 182.562 85.6516C181.797 84.7772 181.22 83.755 180.867 82.6483C179.981 79.7397 179.533 76.715 179.538 73.6741C179.597 72.3516 179.414 71.0294 178.998 69.7725C178.468 68.5097 177.702 67.3597 176.741 66.3846C176.197 65.7978 175.442 65.1492 175.746 64.2803C176.148 63.1325 177.454 62.8335 178.372 62.2507C180.247 60.9519 181.662 59.0909 182.412 56.9361C184.583 51.4825 183.859 45.442 185.25 39.8244C185.745 37.815 182.645 36.9581 182.149 38.9692C180.878 44.1198 181.33 49.518 179.819 54.618C179.264 56.4828 178.372 58.481 176.649 59.5372C175.505 60.2373 174.369 60.6914 173.514 61.7958C173.078 62.3272 172.765 62.949 172.598 63.6163C172.431 64.2836 172.415 64.9796 172.55 65.654C173.139 68.132 175.909 69.2919 176.292 71.8929C176.48 73.1701 176.339 74.5647 176.436 75.8596C176.549 77.4808 176.754 79.0944 177.048 80.6927C177.474 83.5702 178.747 86.256 180.703 88.409C182.506 90.2433 184.979 91.1901 187.414 91.8589C190.382 92.7152 193.489 92.9763 196.558 92.6273C197.099 92.5582 196.898 92.4199 197.147 92.9705C197.271 93.2438 197.409 93.5106 197.537 93.7815C198.195 95.1707 198.767 96.599 199.249 98.0584C199.892 100.013 203.001 99.1757 202.349 97.2032H202.353Z" fill="#211715"/>
<path d="M232.176 95.9172C232.102 95.1633 232.043 94.4077 232.015 93.6514C232.003 93.3612 231.994 93.071 231.994 92.7817C232.005 92.5736 232.005 92.3652 231.994 92.1571C232.211 91.0126 232.711 89.9404 233.447 89.0377C235.027 86.8747 237.212 85.1538 239.227 83.4176C242.502 80.6241 245.358 77.3734 247.706 73.7658C250.993 68.6718 253.048 62.8819 253.709 56.8553C254.369 50.8288 253.616 44.7313 251.509 39.0464C247.817 29.11 240.243 20.266 230.253 16.3669C219.954 12.348 207.747 13.2369 197.957 18.2847C190.552 22.1043 184.713 28.3537 182.569 36.5241C182.193 38.027 181.915 39.5525 181.735 41.0912C181.738 41.5169 181.908 41.9246 182.209 42.2256C182.51 42.5266 182.917 42.6967 183.343 42.6988C183.766 42.6882 184.169 42.5154 184.468 42.2162C184.767 41.917 184.94 41.5142 184.951 41.0912C185.462 36.8146 187.032 32.7332 189.519 29.2169C189.6 29.1092 189.781 28.8769 189.59 29.1205C189.67 29.0168 189.751 28.9139 189.836 28.8126C190.055 28.5447 190.278 28.2816 190.506 28.0233C191.042 27.4189 191.603 26.8383 192.189 26.2815C193.642 24.8972 195.227 23.6588 196.922 22.5841C201.487 19.7659 206.61 17.9746 211.936 17.3348C217.263 16.6949 222.664 17.2217 227.766 18.8787C236.859 21.8752 243.867 29.4886 247.7 38.1309C250.021 43.4023 251.038 49.1557 250.663 54.9033C250.288 60.651 248.533 66.2235 245.546 71.1487C243.489 74.5482 240.934 77.6197 237.965 80.2603C234.472 83.3686 229.244 86.8763 228.802 91.9843C228.736 93.2993 228.79 94.6176 228.963 95.9229C228.974 96.3457 229.147 96.7481 229.446 97.0472C229.745 97.3463 230.147 97.5192 230.57 97.5304C230.996 97.5275 231.403 97.3572 231.704 97.0563C232.004 96.7555 232.175 96.3483 232.178 95.9229L232.176 95.9172Z" fill="#211715"/>
<path d="M183.5 72.4628C183.038 72.6083 182.573 72.7409 182.102 72.851C181.852 72.9094 181.601 72.9614 181.349 73.007C181.242 73.0255 181.134 73.0423 181.027 73.06C180.694 73.1147 181.397 73.019 180.974 73.0673C180.517 73.1199 180.057 73.1416 179.597 73.1324C179.37 73.1275 179.147 73.1074 178.921 73.0914C178.574 73.0665 179.254 73.1517 178.937 73.0962C178.801 73.0721 178.666 73.0496 178.535 73.0214C178.124 72.908 177.684 72.9626 177.314 73.1731C176.943 73.3836 176.671 73.7328 176.557 74.1439C176.444 74.555 176.498 74.9944 176.709 75.3652C176.919 75.7361 177.269 76.0082 177.68 76.1216C179.918 76.5077 182.217 76.314 184.359 75.559C184.563 75.5029 184.753 75.4072 184.92 75.2775C185.086 75.1478 185.226 74.9865 185.33 74.8029C185.434 74.6193 185.501 74.4169 185.527 74.2074C185.554 73.9979 185.538 73.7852 185.482 73.5817C185.426 73.3781 185.33 73.1876 185.2 73.021C185.071 72.8544 184.909 72.715 184.726 72.6107C184.542 72.5065 184.34 72.4394 184.13 72.4133C183.921 72.3872 183.708 72.4027 183.505 72.4588L183.5 72.4628Z" fill="#211715"/>
<path d="M213.01 74.6716C213.799 77.5813 215.108 80.3243 216.873 82.7681C218.634 85.5345 220.819 88.007 223.348 90.0954C223.656 90.3849 224.062 90.5462 224.485 90.5462C224.907 90.5462 225.314 90.3849 225.621 90.0954C225.92 89.7927 226.088 89.3843 226.088 88.9588C226.088 88.5333 225.92 88.125 225.621 87.8223C223.292 85.924 221.277 83.6707 219.649 81.1453C218.032 78.9397 216.833 76.4558 216.112 73.8172C215.656 71.7997 212.556 72.6533 213.012 74.6716H213.01Z" fill="#211715"/>
<path d="M56.1919 201.649C64.3808 199.399 72.5561 197.099 80.7306 194.799C91.0517 191.897 101.367 188.97 111.676 186.017C115.54 184.906 119.405 183.797 123.251 182.626C125.224 182.025 124.382 178.921 122.395 179.526C114.262 182.002 106.067 184.288 97.8881 186.611C87.5783 189.539 77.2617 192.445 66.9385 195.327C63.0739 196.407 59.2074 197.481 55.3391 198.548C53.3465 199.096 54.1929 202.198 56.1943 201.649H56.1919Z" fill="#211715"/>
<path d="M169.659 165.147C163.101 163.574 156.605 161.585 150.144 159.658C148.758 159.244 147.368 158.832 145.996 158.372C145.806 158.308 145.618 158.242 145.433 158.175C145.353 158.148 145.273 158.112 145.192 158.087C145.155 158.075 145.118 158.056 145.08 158.042C145.523 158.203 145.276 158.083 144.983 158.002C143.799 157.677 142.023 158.902 141.035 159.493C136.119 162.478 132.092 166.726 129.373 171.794C128.791 172.908 127.725 174.57 128.54 175.754C129.098 176.484 129.741 177.145 130.454 177.724C132.341 179.359 134.327 180.874 136.402 182.262C141.669 185.892 147.199 189.145 152.778 192.267C155.81 194.016 158.951 195.569 162.182 196.916C165.311 198.156 168.598 198.953 171.947 199.284C176.59 199.86 181.296 198.968 185.406 196.733C187.918 195.351 190.086 193.419 191.747 191.081C193.313 188.603 194.604 185.962 195.598 183.204C198.024 176.923 199.998 170.476 201.504 163.913C201.92 162.254 202.328 160.594 202.738 158.934C203.235 156.924 200.136 156.068 199.638 158.079C197.805 165.493 196.072 173.007 193.361 180.162C192.318 183.163 190.993 186.057 189.401 188.806C187.759 191.295 185.448 193.271 182.735 194.508C177.735 196.941 172.044 196.437 166.805 195.103C163.098 194.019 159.542 192.473 156.221 190.501C152.961 188.713 149.739 186.859 146.554 184.939C143.291 182.972 140.059 180.939 136.95 178.736C134.74 177.301 132.722 175.59 130.944 173.645L131.358 175.21C132.613 172.132 134.488 169.344 136.865 167.021C139.151 164.633 141.865 162.304 144.99 161.103L143.751 160.942C146.67 162.058 149.654 162.998 152.685 163.756C156.792 164.948 160.908 166.11 165.033 167.241C166.289 167.586 167.544 167.946 168.811 168.25C170.82 168.732 171.679 165.632 169.665 165.149L169.659 165.147Z" fill="#211715"/>
<path d="M166.634 166.02C168.738 158.65 170.573 151.203 172.891 143.895C174.159 139.895 175.569 135.946 177.123 132.046C178.528 128.229 180.464 124.63 182.875 121.355C185.656 117.826 188.94 114.723 192.621 112.147C194.302 110.966 192.697 108.178 190.998 109.371C184.046 114.119 178.561 120.718 175.164 128.421C171.961 136.108 169.282 144.003 167.145 152.052C165.94 156.424 164.781 160.813 163.535 165.172C162.966 167.165 166.068 168.016 166.636 166.027L166.634 166.02Z" fill="#211715"/>
<path d="M197.059 108.808C201.111 106.214 205.097 103.465 209.51 101.515C211.963 100.465 214.497 99.6165 217.087 98.978C219.77 98.2074 222.519 97.6846 225.298 97.4162C226.849 97.3128 228.405 97.3284 229.953 97.4628C231.598 97.5594 233.185 98.1115 234.534 99.0575C236.263 100.205 237.876 97.421 236.157 96.2813C234.933 95.3815 233.524 94.7662 232.032 94.48C230.437 94.2496 228.827 94.1333 227.215 94.132C224.281 94.1907 221.364 94.5858 218.52 95.3095C213.108 96.4967 207.904 98.4847 203.079 101.208C200.475 102.724 197.972 104.408 195.434 106.03C193.697 107.142 195.308 109.926 197.057 108.807L197.059 108.808Z" fill="#211715"/>
<path d="M240.585 102.287C252.597 110.822 259.194 124.726 262.992 138.57C264.178 142.892 265.13 147.273 265.986 151.672C266.381 153.7 269.48 152.841 269.087 150.816C266.104 135.479 261.622 119.896 251.273 107.791C248.602 104.671 245.558 101.89 242.208 99.5125C241.839 99.3008 241.402 99.2427 240.99 99.3506C240.579 99.4586 240.226 99.724 240.009 100.09C239.802 100.46 239.747 100.895 239.855 101.305C239.962 101.715 240.224 102.067 240.585 102.289V102.287Z" fill="#211715"/>
<path d="M217.681 209.387C218.38 199.34 219.079 189.298 219.836 179.258C219.987 177.249 220.225 175.458 221.359 173.741C222.328 172.291 223.733 171.187 225.371 170.589C227.169 169.946 229.059 169.499 230.892 168.963C232.888 168.38 234.883 167.795 236.877 167.21C245.081 164.804 253.282 162.388 261.48 159.964L266.724 158.418C268.251 157.968 269.66 157.718 270.918 158.931C272.365 160.324 271.827 162.46 271.709 164.244C271.569 166.348 271.427 168.452 271.284 170.556C270.82 177.368 270.32 184.178 269.837 190.989C269.692 193.053 272.907 193.045 273.052 190.989C273.503 184.623 273.974 178.259 274.411 171.893C274.554 169.811 274.695 167.73 274.834 165.648C274.987 163.358 275.51 160.846 274.562 158.67C274.172 157.78 273.589 156.988 272.854 156.353C272.119 155.717 271.252 155.254 270.315 154.996C268.296 154.454 266.422 155.157 264.5 155.719C256.046 158.212 247.592 160.703 239.138 163.195C234.939 164.427 230.738 165.657 226.536 166.883C224.485 167.365 222.557 168.271 220.877 169.544C219.309 170.854 218.114 172.556 217.415 174.477C216.47 177.008 216.574 179.924 216.376 182.584C216.154 185.568 215.937 188.552 215.723 191.537C215.295 197.485 214.877 203.434 214.47 209.386C214.327 211.45 217.542 211.442 217.685 209.386L217.681 209.387Z" fill="#211715"/>
</g>
<defs>
<clipPath id="clip0_206_1962">
<rect width="274.96" height="210.826" fill="white" transform="translate(0.151367 0.106323)"/>
</clipPath>
</defs>
</svg>
